<svg id="48fe9f5d-ed7a-4723-9fc0-bbe4a8536ead" data-name="New Vector Logo" xmlns="http://www.w3.org/2000/svg" viewBox="0 0 139.16 139.16"><title>ingram-logo</title><circle id="86a57c08-7add-43f8-bc9b-80c43f076755" data-name="White BG" cx="69.58" cy="69.58" r="69.58" style="fill:#fff"/><path id="af6da534-0505-4731-b7b2-b03fb6f397eb" data-name="Outer circle" d="M148.22,76.23A69.58,69.58,0,1,1,78.64,6.65,69.58,69.58,0,0,1,148.22,76.23ZM78.64,9.57A66.66,66.66,0,1,0,145.3,76.23,66.66,66.66,0,0,0,78.64,9.57Z" transform="translate(-9.06 -6.65)" style="fill:#ab192d"/><g id="e994f387-4c8f-4cd9-bc3e-370801c5d254" data-name="Semicircles"><path d="M138.28,53.55H19a63.82,63.82,0,0,1,119.28,0Z" transform="translate(-9.06 -6.65)" style="fill:#ab192d"/><path d="M19.3,99.68H138a63.82,63.82,0,0,1-118.68,0Z" transform="translate(-9.06 -6.65)" style="fill:#ab192d"/></g><g id="abc52c80-22ac-4898-8fd0-268eeb15c751" data-name="Letters"><path d="M112.39,93.91v-35h7.7l5.79,20.62a.28.28,0,0,0,.5,0l6-20.63h7.54v35h-6.09V77.06a.16.16,0,0,0-.31-.05c-.21.62-5,16.91-5,16.91h-4.69S119.12,78.3,119,77.83c-.07-.13-.27-.11-.28,0V93.91Z" transform="translate(-9.06 -6.65)" style="fill:#00205c"/><path d="M111,93.91h-6.2l-1.26-6.46H96.69l-1.3,6.46H89.61l7.24-35h6.69Zm-8.49-11.74s-2.11-10.85-2.19-11.23-.17-.36-.27,0c-.46,2-2.29,11.22-2.29,11.22Z" transform="translate(-9.06 -6.65)" style="fill:#00205c"/><path d="M83.32,79.21c1.65,4.9,5.15,14.7,5.15,14.7H82.37s-3.22-9.54-4.18-12.54c-.37-1.12-.44-1.59-1.05-1.51-.35,0-.44.56-.45,1,0,.1,0,13,0,13H71.18V59.08H81.91a7.68,7.68,0,0,1,5.89,3.85,12,12,0,0,1,1.31,8.57,9.59,9.59,0,0,1-3.18,5.8A16,16,0,0,1,83.41,79,.18.18,0,0,0,83.32,79.21Zm-6.49-4.79a22.84,22.84,0,0,0,3.93-.11,4.58,4.58,0,0,0,2.8-2.94,8,8,0,0,0,0-3.87,4.39,4.39,0,0,0-2.24-2.83,28.28,28.28,0,0,0-4.46-.19Z" transform="translate(-9.06 -6.65)" style="fill:#00205c"/><path d="M62.7,80.74H58.14a.11.11,0,0,1-.11-.11V76.07a.11.11,0,0,1,.11-.11h10.8a.11.11,0,0,1,.11.11c0,.9,0,7.4-1.23,11.62A11,11,0,0,1,64,93.39c-2.6,2.14-9.22,2.88-12.71-1.88a17,17,0,0,1-2.92-7.25,38.44,38.44,0,0,1,1.08-18.42c1-2.79,2.32-5.13,5.25-6.73A9.65,9.65,0,0,1,65.53,60.8,18,18,0,0,1,69,67.18a.11.11,0,0,1-.07.13l-5.45,2a.11.11,0,0,1-.14-.07,21.75,21.75,0,0,0-1.09-3.14,3.37,3.37,0,0,0-5.6-1.25,10.83,10.83,0,0,0-2.32,5.45,34.56,34.56,0,0,0,.16,13.53,9.59,9.59,0,0,0,1.84,3.9A3.58,3.58,0,0,0,59.52,89a3.33,3.33,0,0,0,2.65-2.26A14.45,14.45,0,0,0,63,81.09.34.34,0,0,0,62.7,80.74Z" transform="translate(-9.06 -6.65)" style="fill:#00205c"/><path d="M39.65,79.6V58.92H45.3v35H37.87c-1.5-4.48-4.31-12.59-5.82-17.44-.07-.24-.27-.2-.26.05V93.91H26.34v-35h5.85c1.41,4.3,6.35,18.88,7.07,20.82C39.38,80,39.64,79.94,39.65,79.6Z" transform="translate(-9.06 -6.65)" style="fill:#00205c"/><rect x="7.54" y="52.27" width="6.01" height="35" style="fill:#00205c"/></g></svg>